<?xml version="1.0" encoding="UTF-8"?>
<svg preserveAspectRatio="none" version="1.1" viewBox="0 0 1440 560" xmlns="http://www.w3.org/2000/svg">
<g mask="url(#a)">
<rect width="1440" height="560" fill="rgba(225, 182, 230, 1)"/>
<path class="triangle-float2" d="m855.91 597.72c28.922 1.732 60.221-8.815 73.323-34.657 12.339-24.339-4.234-50.713-18.136-74.194-13.511-22.821-28.713-48.065-55.187-49.65-28.542-1.709-54.886 16.846-67.953 42.279-12.096 23.543-4.949 50.76 8.411 73.61 13.204 22.582 33.43 41.048 59.542 42.612" fill="rgba(126, 28, 142, 0.4)"/>
<path class="triangle-float2" d="m655.05 528.02c34.78 1.438 68.505-14.456 86.943-43.982 19.571-31.34 25.243-72.367 5.031-103.3-18.892-28.911-57.438-29.739-91.974-29.751-34.565-0.012-74.38 0-92.081 29.689-17.946 30.101-1.817 66.933 16.756 96.652 17.191 27.507 42.916 49.35 75.325 50.69" fill="rgba(126, 28, 142, 0.4)"/>
<path class="triangle-float3" d="m137.44 290.33 49.343-96.841-169.93-25.594z" fill="rgba(126, 28, 142, 0.4)"/>
<path class="triangle-float1" d="m304.18 524.34 58.988 120.94 120.94-58.988-58.988-120.94z" fill="rgba(126, 28, 142, 0.4)"/>
<path class="triangle-float3" d="m421.46 173.44-33.742-79.49-102.36 90.357z" fill="rgba(126, 28, 142, 0.4)"/>
<path class="triangle-float1" d="m948.85 349.42c48.33-0.666 81.482-41.366 107.56-82.063 29.269-45.678 66.268-99.816 39.05-146.74-27.179-46.862-92.606-42.999-146.61-38.708-44.844 3.563-88.031 20.591-111.13 59.19-23.727 39.641-23.433 88.539-1.688 129.3 23.163 43.42 63.615 79.703 112.82 79.025" fill="rgba(126, 28, 142, 0.4)"/>
</g>
<defs>
<mask id="a">
<rect width="1440" height="560" fill="#fff"/>
</mask>
</defs>
</svg>